<svg width="20" height="20" viewBox="0 0 20 20" version="1.1" xmlns="http://www.w3.org/2000/svg" xmlns:xlink="http://www.w3.org/1999/xlink">
<title>fb-icon</title>
<desc>Created using Figma</desc>
<g id="Canvas" transform="translate(-5501 2514)">
<g id="fb-icon">
<use xlink:href="#path0_fill" transform="translate(5501 -2514)" fill="#FFFFFF"/>
</g>
</g>
<defs>
<path id="path0_fill" d="M 17.3049 0L 2.69506 0C 1.20665 0 0 1.2066 0 2.69506L 0 17.305C 0 18.7935 1.2066 20.0001 2.69506 20.0001L 9.90056 20.0001L 9.91284 12.8531L 8.05607 12.8531C 7.81477 12.8531 7.61892 12.658 7.61799 12.4167L 7.60909 10.1129C 7.60816 9.87032 7.80459 9.67315 8.04721 9.67315L 9.90061 9.67315L 9.90061 7.44714C 9.90061 4.86388 11.4783 3.45727 13.7827 3.45727L 15.6737 3.45727C 15.9157 3.45727 16.1118 3.65341 16.1118 3.8954L 16.1118 5.83793C 16.1118 6.07982 15.9158 6.27592 15.674 6.27606L 14.5135 6.2766C 13.2603 6.2766 13.0176 6.87212 13.0176 7.74608L 13.0176 9.6732L 15.7714 9.6732C 16.0338 9.6732 16.2373 9.90232 16.2064 10.1629L 15.9334 12.4667C 15.9072 12.6871 15.7203 12.8532 15.4983 12.8532L 13.0299 12.8532L 13.0176 20.0001L 17.305 20.0001C 18.7934 20.0001 20 18.7935 20 17.3051L 20 2.69506C 20 1.2066 18.7934 0 17.3049 0Z"/>
</defs>
</svg>
